<?xml version="1.0" encoding="iso-8859-1"?>
<!-- Generator: Adobe Illustrator 19.0.0, SVG Export Plug-In . SVG Version: 6.00 Build 0)  -->
<svg version="1.1" id="Layer_1" xmlns="http://www.w3.org/2000/svg" xmlns:xlink="http://www.w3.org/1999/xlink" x="0px" y="0px"
	 viewBox="0 0 512 512" style="enable-background:new 0 0 512 512;" xml:space="preserve">
<circle style="fill:#FFD15D;" cx="256" cy="256" r="256"/>
<path style="fill:#F9B54C;" d="M342.152,497.124c83.449-29.818,146.892-101.712,164.764-190.14l-82.82-82.82l-110.658,4.227
	l-205.546,34.475L342.152,497.124z"/>
<rect x="107.899" y="199.111" style="fill:#2B9ED8;" width="191.267" height="63.755"/>
<path style="fill:#31BAFD;" d="M426.667,294.743c0,17.606-49.952,31.877-111.571,31.877s-111.571-14.272-111.571-31.877v-63.755
	h223.142V294.743z"/>
<path style="fill:#2B9ED8;" d="M314.613,230.988v95.628c0.162,0,0.321,0.003,0.483,0.003c61.619,0,111.571-14.272,111.571-31.877
	v-63.755H314.613z"/>
<ellipse style="fill:#84DBFF;" cx="315.095" cy="230.986" rx="111.571" ry="31.877"/>
<path style="fill:#31BAFD;" d="M315.095,199.111c-0.162,0-0.321,0.003-0.483,0.003v63.748c0.162,0,0.321,0.003,0.483,0.003
	c61.619,0,111.571-14.272,111.571-31.877C426.667,213.383,376.715,199.111,315.095,199.111z"/>
<ellipse style="fill:#B5F1F4;" cx="315.095" cy="230.986" rx="70.516" ry="17.067"/>
<path style="fill:#84DBFF;" d="M315.095,213.923c-0.162,0-0.321,0.003-0.483,0.003v34.126c0.162,0,0.321,0.003,0.483,0.003
	c38.945,0,70.516-7.64,70.516-17.067S354.04,213.923,315.095,213.923z"/>
<g>
	<path style="fill:#2B9ED8;" d="M222.965,312.722c2.384,0.995,4.973,1.946,7.728,2.857v-41.355h-7.728V312.722z"/>
	<path style="fill:#2B9ED8;" d="M267.117,323.529c2.522,0.343,5.106,0.655,7.728,0.946v-41.687h-7.728V323.529z"/>
	<path style="fill:#2B9ED8;" d="M311.272,326.594c1.272,0.012,2.541,0.028,3.824,0.028c1.308,0,2.605-0.016,3.903-0.028v-37.383
		h-7.728v37.383H311.272z"/>
</g>
<g>
	<path style="fill:#1D8CB7;" d="M314.613,289.209v37.409c0.162,0,0.321,0.003,0.483,0.003c1.308,0,2.605-0.016,3.903-0.028v-37.385
		L314.613,289.209L314.613,289.209z"/>
	<path style="fill:#1D8CB7;" d="M398.774,315.818c2.753-0.891,5.332-1.829,7.728-2.805v-38.788h-7.728V315.818z"/>
	<path style="fill:#1D8CB7;" d="M354.621,324.555c2.625-0.284,5.203-0.596,7.728-0.934v-40.834h-7.728V324.555z"/>
</g>
<g>
</g>
<g>
</g>
<g>
</g>
<g>
</g>
<g>
</g>
<g>
</g>
<g>
</g>
<g>
</g>
<g>
</g>
<g>
</g>
<g>
</g>
<g>
</g>
<g>
</g>
<g>
</g>
<g>
</g>
</svg>
